<?xml version="1.0" encoding="iso-8859-1"?>
<!-- Uploaded to: SVG Repo, www.svgrepo.com, Generator: SVG Repo Mixer Tools -->
<svg version="1.1" id="Layer_1" xmlns="http://www.w3.org/2000/svg" xmlns:xlink="http://www.w3.org/1999/xlink" 
	 viewBox="0 0 512 512" xml:space="preserve">
<rect x="103.333" y="10.667" style="fill:#EFEFEF;" width="305.333" height="245.333"/>
<path style="fill:#F4AD47;" d="M444.667,501.333H67.333c-19.883,0-36-16.117-36-36V292c0-19.883,16.117-36,36-36h377.333
	c19.883,0,36,16.117,36,36v173.333C480.667,485.216,464.549,501.333,444.667,501.333z"/>
<path style="fill:#E8594F;" d="M294,306.667h-76c-31.664,0-57.333-19.003-57.333-50.667l0,0h190.667l0,0
	C351.333,287.664,325.664,306.667,294,306.667z"/>
<g>
	<path style="fill:#231F20;" d="M215.333,105.333c0,5.891,4.776,10.667,10.667,10.667h19.333v53.333
		c0,5.891,4.776,10.667,10.667,10.667c5.891,0,10.667-4.776,10.667-10.667V116H286c5.891,0,10.667-4.776,10.667-10.667
		S291.891,94.667,286,94.667h-60C220.109,94.667,215.333,99.443,215.333,105.333z"/>
	<path style="fill:#231F20;" d="M295.333,70.667h20V92c0,5.891,4.776,10.667,10.667,10.667c5.891,0,10.667-4.776,10.667-10.667V60
		c0-5.891-4.776-10.667-10.667-10.667h-30.667c-5.891,0-10.667,4.776-10.667,10.667C284.667,65.891,289.443,70.667,295.333,70.667z"
		/>
	<path style="fill:#231F20;" d="M184.667,102.667c5.891,0,10.667-4.776,10.667-10.667V70.667h20C221.224,70.667,226,65.891,226,60
		c0-5.891-4.776-10.667-10.667-10.667h-30.667C178.776,49.333,174,54.109,174,60v32C174,97.891,178.776,102.667,184.667,102.667z"/>
	<path style="fill:#231F20;" d="M184.667,214.667h30.667c5.891,0,10.667-4.776,10.667-10.667c0-5.891-4.776-10.667-10.667-10.667
		h-20V172c0-5.891-4.776-10.667-10.667-10.667S174,166.109,174,172v32C174,209.891,178.776,214.667,184.667,214.667z"/>
	<path style="fill:#231F20;" d="M326,161.333c-5.891,0-10.667,4.776-10.667,10.667v21.333h-20c-5.891,0-10.667,4.776-10.667,10.667
		c0,5.891,4.776,10.667,10.667,10.667H326c5.891,0,10.667-4.776,10.667-10.667v-32C336.667,166.109,331.891,161.333,326,161.333z"/>
	<path style="fill:#231F20;" d="M444.667,245.333h-25.333V168h20v21.333c0,5.891,4.776,10.667,10.667,10.667
		c5.891,0,10.667-4.776,10.667-10.667v-64c0-5.891-4.776-10.667-10.667-10.667c-5.891,0-10.667,4.776-10.667,10.667v21.333h-20v-136
		C419.333,4.776,414.557,0,408.667,0H103.333c-5.891,0-10.667,4.776-10.667,10.667v136H74v-21.333
		c0-5.891-4.776-10.667-10.667-10.667s-10.667,4.776-10.667,10.667v64c0,5.891,4.776,10.667,10.667,10.667S74,195.224,74,189.333
		V168h18.667v77.333H67.333c-25.732,0-46.667,20.935-46.667,46.667v173.333c0,25.732,20.935,46.667,46.667,46.667h377.333
		c25.732,0,46.667-20.935,46.667-46.667V292C491.333,266.268,470.399,245.333,444.667,245.333z M114,21.333h284v224h-46.667H160.667
		H114V21.333z M339.365,266.667C334.141,286.839,313.993,296,294,296h-76c-19.993,0-40.141-9.161-45.365-29.333H339.365z
		 M470,465.333c0,13.969-11.364,25.333-25.333,25.333H67.333C53.364,490.667,42,479.303,42,465.333V292
		c0-13.969,11.364-25.333,25.333-25.333h36h47.56c2.309,13.727,9.099,25.805,19.708,34.711
		c12.259,10.289,29.092,15.956,47.399,15.956h76c18.307,0,35.139-5.667,47.399-15.956c10.611-8.907,17.4-20.984,19.708-34.711h47.56
		h36C458.636,266.667,470,278.031,470,292V465.333z"/>
	<path style="fill:#231F20;" d="M145.333,368h221.333c5.891,0,10.667-4.776,10.667-10.667s-4.776-10.667-10.667-10.667H145.333
		c-5.891,0-10.667,4.776-10.667,10.667S139.443,368,145.333,368z"/>
	<path style="fill:#231F20;" d="M366.667,432H145.333c-5.891,0-10.667,4.776-10.667,10.667c0,5.891,4.776,10.667,10.667,10.667
		h221.333c5.891,0,10.667-4.776,10.667-10.667C377.333,436.776,372.557,432,366.667,432z"/>
	<path style="fill:#231F20;" d="M404.667,389.333H107.333c-5.891,0-10.667,4.776-10.667,10.667c0,5.891,4.776,10.667,10.667,10.667
		h297.333c5.891,0,10.667-4.776,10.667-10.667C415.333,394.109,410.557,389.333,404.667,389.333z"/>
</g>
</svg>